<?xml version="1.0" encoding="UTF-8"?>
<svg id="Layer_1" xmlns="http://www.w3.org/2000/svg" version="1.1" viewBox="0 0 683.09 228.77">
  <!-- Generator: Adobe Illustrator 29.2.1, SVG Export Plug-In . SVG Version: 2.1.0 Build 116)  -->
  <defs>
    <style>
      .st0, .st1 {
        fill: #fff;
      }

      .st2 {
        fill: #f85557;
      }

      .st1 {
        stroke: #f85557;
        stroke-miterlimit: 10;
        stroke-width: .46px;
      }
    </style>
  </defs>
  <g>
    <path class="st0" d="M167.26,162.52c-4.36,0-8.35-2.28-9.87-7.4-1.71,29.03-20.68,49.33-51.23,49.33-11.19,0-19.16-3.23-19.16-15.94v-25.99c22.01,0,40.41-5.88,40.41-31.5,0-15.75-7.97-30.74-16.89-43.45l20.68-17.08c9.68,12.9,16.51,26.75,20.87,41.36h22.2v50.66h-7.02Z"/>
    <path class="st0" d="M325.12,162.52c-5.31,0-10.24-2.66-11.57-9.11-1.33,6.64-6.26,9.11-12.52,9.11h-133.19v-50.66h45.35c-1.52-4.55-3.98-8.73-6.83-12.52l16.7-14.42c4.17,6.83,7.97,14.04,10.25,21.82,13.28-15.75,30.55-36.62,53.13-36.62s27.13,24.48,27.13,37.95v3.79h19.16v50.66h-7.59ZM287.56,108.07c0-6.83-3.79-13.28-11.38-13.28-9.49,0-18.02,10.44-23.53,17.08h34.91v-3.79Z"/>
    <path class="st0" d="M326.26,162.52v-50.66h139.45v50.66h-139.45Z"/>
    <path class="st0" d="M517.32,162.52h-58.06v-50.66h46.67c-1.14-6.64-4.93-12.52-8.92-17.84l19.35-16.51c10.44,16.51,14.04,24.85,14.04,44.78v25.42c0,9.3-2.85,14.8-13.09,14.8ZM498.35,210.9l-18.4-12.71,12.71-18.97,18.4,12.9-12.71,18.78Z"/>
    <path class="st0" d="M567.79,162.52c-7.4,0-12.33-2.13-12.33-8.09v-73.21l35.48-7.46v88.76h-23.15Z"/>
  </g>
  <g>
    <path class="st2" d="M556.06,72.41l22.27-4.59c21.4-4.62,24.41-37.09,3.71-47.5-16.72-8.41-33.99,6.04-31.49,25.46l5.5,26.63ZM572.55,33.86c10.2-.85,12.74,16.16,2.67,18.15-11.12,2.2-14.4-17.17-2.67-18.15Z"/>
    <g>
      <path class="st0" d="M576.49,59.85c2.05-.42,4.02-1.33,5.79-2.74,3.18-2.54,5.21-6.34,5.73-10.68.52-4.34-.55-8.72-3-12.31-5.05-7.43-14.5-9.19-21.06-3.94-3.18,2.54-5.21,6.34-5.73,10.68-.52,4.34.55,8.72,3,12.31,3.69,5.42,9.72,7.83,15.26,6.69ZM570.3,30.08c4.63-.96,9.68,1.05,12.76,5.59,2.05,3.01,2.93,6.66,2.5,10.29-.43,3.63-2.13,6.8-4.79,8.93-5.48,4.39-13.38,2.91-17.6-3.29-2.05-3.01-2.93-6.66-2.5-10.29.43-3.63,2.13-6.8,4.79-8.93,1.48-1.18,3.13-1.94,4.84-2.29Z"/>
      <g>
        <path class="st1" d="M580.73,37.27c.6.82,1.1,1.75,1.49,2.77.95,2.52,1.01,5.18.33,7.53l-8.63-7.45,6.81-2.85Z"/>
        <path class="st1" d="M571.33,33.03c3.38-.5,6.83.98,9.1,3.84l-9.97,4.18.87-8.02Z"/>
        <path class="st1" d="M565.35,50.5c-.6-.82-1.1-1.75-1.49-2.77-.95-2.52-1.01-5.17-.33-7.53l8.63,7.44-6.81,2.85Z"/>
        <path class="st1" d="M563.67,39.73c.91-2.72,2.83-4.98,5.49-6.1.56-.24,1.13-.41,1.71-.52l-1.27,11.73-5.92-5.11Z"/>
        <path class="st1" d="M582.4,48.05c-.92,2.72-2.83,4.98-5.49,6.09-.6.25-1.21.43-1.82.55l1.38-11.75,5.92,5.11Z"/>
        <path class="st1" d="M574.64,54.76c-3.35.45-6.74-1.03-8.99-3.86l9.93-4.16-.94,8.02Z"/>
      </g>
    </g>
  </g>
</svg>