<?xml version="1.0" encoding="UTF-8"?>
<svg id="Layer_1" xmlns="http://www.w3.org/2000/svg" version="1.1" viewBox="0 0 683.09 228.77">
  <!-- Generator: Adobe Illustrator 29.2.1, SVG Export Plug-In . SVG Version: 2.1.0 Build 116)  -->
  <defs>
    <style>
      .st0 {
        stroke: #f85557;
        stroke-miterlimit: 10;
      }

      .st0, .st1 {
        fill: #fff;
      }

      .st2 {
        fill: #f85557;
      }
    </style>
  </defs>
  <g>
    <path class="st1" d="M231.4,50.9v37.81c1.67-.84,2.11-2.88,3.86-4.38,14.92-12.85,49.41-10.35,64.47,1.5,20.26,15.94,20.79,56.11,5.76,75.52-14.61,18.85-58.17,21.95-74.08,2.99v10.66h-25.22V50.9h25.21ZM259.35,99.64c-37.74,1.68-37.16,50.24-3.26,53.1,18.27,1.54,34.68-5.16,34.87-25.73.18-19.41-13.2-28.19-31.61-27.37Z"/>
    <path class="st1" d="M533.9,130.4h-84.35c2.62,19.2,19.14,24.02,36.35,22.29,8.96-.9,13.01-4.1,18.95-10.19.8-.82.81-2.41.94-2.41h27.15c-7.58,33.29-43.06,41.73-72.73,34.43-48.69-11.98-47.61-87.4,2.72-97.16,38.61-7.49,73.88,9.89,70.97,53.04ZM505.79,111.98c-9.7-16.43-42.98-17.01-52.36,0h52.36Z"/>
    <path class="st1" d="M415.62,111.01h-25.21c-1.21-12.55-14.96-15.33-25.58-14.42-11.98,1.03-23.57,11.44-7.6,17.06,17.77,6.25,54.83,1.83,61.03,26.23,11.13,43.79-80.14,49.19-95.5,14.06-1.54-3.53-2.55-8.08-3.13-11.9h26.18c1.96,14.4,22.11,14.58,33.43,13.56,11.02-1,20-9.95,6.58-15.27-16.96-6.73-51.16-2.32-59.6-23.78-6.19-15.74,1.23-29.37,16.02-35.75,26.44-11.43,69.49-3.21,73.37,30.23Z"/>
    <path class="st1" d="M565.9,78.05v15.51l10.34-9.53c2.65-1.76,13.53-5.98,16.32-5.98h20.85v20.36c-16.13-.3-34.77,1.64-43.44,17.15-1.78,3.18-4.07,9.92-4.07,13.39v46.05h-24.24v-96.96h24.24Z"/>
  </g>
  <path class="st2" d="M191.9,177.86h-61.02c-58.75-.48-84.25-76-35.52-110.81,39.37-28.12,92.58-2.31,96.55,44.97v65.84ZM127.67,94.53c-27.25,2.97-24.7,44.55,2.82,44.35,30.43-.22,28.52-47.76-2.82-44.35Z"/>
  <g>
    <path class="st1" d="M130.33,150.03c-4.75,0-9.56-1-14.15-3.11-8.24-3.79-14.51-10.57-17.65-19.08-3.14-8.51-2.79-17.73,1.01-25.97,7.83-17.01,28.04-24.47,45.05-16.64,8.24,3.79,14.51,10.57,17.65,19.08,3.14,8.51,2.79,17.73-1.01,25.97-5.72,12.42-18.04,19.75-30.9,19.75ZM130.42,87.69c-10.75,0-21.05,6.13-25.83,16.51-3.17,6.89-3.47,14.6-.84,21.71,2.63,7.11,7.87,12.78,14.76,15.95,14.21,6.55,31.11.31,37.66-13.91,3.17-6.89,3.47-14.6.84-21.71-2.63-7.11-7.87-12.78-14.76-15.95-3.83-1.76-7.86-2.6-11.83-2.6Z"/>
    <g>
      <path class="st0" d="M110.51,106.44c-.95,1.9-1.65,3.98-2.04,6.18-.96,5.46.13,10.82,2.72,15.26l15.79-18.53-16.47-2.91Z"/>
      <path class="st0" d="M129.49,94.02c-7.76.4-14.74,4.8-18.49,11.49l24.11,4.25-5.62-15.74Z"/>
      <path class="st0" d="M150.82,126.63c.95-1.9,1.65-3.98,2.04-6.18.96-5.46-.13-10.81-2.71-15.25l-15.79,18.52,16.47,2.91Z"/>
      <path class="st0" d="M149.6,104.3c-3.28-5.08-8.59-8.83-15.01-9.97-1.36-.24-2.71-.35-4.04-.35l8.22,23.02,10.83-12.71Z"/>
      <path class="st0" d="M111.74,128.77c3.28,5.07,8.59,8.82,15.01,9.96,1.45.26,2.89.36,4.3.34l-8.47-23.02-10.84,12.72Z"/>
      <path class="st0" d="M132.1,139.03c7.65-.48,14.52-4.86,18.23-11.47l-24.01-4.24,5.78,15.71Z"/>
    </g>
  </g>
</svg>